<svg class="animated" id="freepik_stories-cute-ghost" xmlns="http://www.w3.org/2000/svg" viewBox="0 0 500 500" version="1.1" xmlns:xlink="http://www.w3.org/1999/xlink" xmlns:svgjs="http://svgjs.com/svgjs"><style>svg#freepik_stories-cute-ghost:not(.animated) .animable {opacity: 0;}svg#freepik_stories-cute-ghost.animated #freepik--Stars--inject-2 {animation: 6s Infinite  linear heartbeat;animation-delay: 0s;}svg#freepik_stories-cute-ghost.animated #freepik--Ghost--inject-2 {animation: 6s Infinite  linear floating;animation-delay: 0s;}svg#freepik_stories-cute-ghost.animated #freepik--Shapes--inject-2 {animation: 6s Infinite  linear floating;animation-delay: 0s;}            @keyframes heartbeat {                0% {                    transform: scale(1);                }                10% {                    transform: scale(1.1);                }                30% {                    transform: scale(1);                }                40% {                    transform: scale(1);                }                50% {                    transform: scale(1.1);                }                60% {                    transform: scale(1);                }                100% {                    transform: scale(1);                }            }                    @keyframes floating {                0% {                    opacity: 1;                    transform: translateY(0px);                }                50% {                    transform: translateY(-10px);                }                100% {                    opacity: 1;                    transform: translateY(0px);                }            }        </style><g id="freepik--background-complete--inject-2" class="animable" style="transform-origin: 250.005px 249.525px;"><path d="M250,372.21A122.69,122.69,0,1,1,372.69,249.52,122.83,122.83,0,0,1,250,372.21Zm0-244.28A121.59,121.59,0,1,0,371.59,249.52,121.73,121.73,0,0,0,250,127.93Z" style="fill: rgb(235, 235, 235); transform-origin: 250px 249.52px;" id="el6gb6iulxdyg" class="animable"></path><path d="M250,358.91A109.39,109.39,0,1,1,359.39,249.52,109.51,109.51,0,0,1,250,358.91Zm0-217.68A108.29,108.29,0,1,0,358.29,249.52,108.41,108.41,0,0,0,250,141.23Z" style="fill: rgb(235, 235, 235); transform-origin: 250px 249.52px;" id="el8s6t79w23in" class="animable"></path><g id="el7ao86jr5s1n"><rect x="177.59" y="61.56" width="1.1" height="20.24" style="fill: rgb(235, 235, 235); transform-origin: 178.14px 71.68px; transform: rotate(-22deg);" class="animable" id="elyczq2u5251m"></rect></g><g id="el7oot39dtzxd"><rect x="191" y="88.16" width="1.1" height="33.38" style="fill: rgb(235, 235, 235); transform-origin: 191.55px 104.85px; transform: rotate(-22deg);" class="animable" id="el8b72ssf76xo"></rect></g><g id="el3ocha23h0rj"><rect x="72.88" y="164.46" width="1.1" height="20.24" style="fill: rgb(235, 235, 235); transform-origin: 73.43px 174.58px; transform: rotate(-67deg);" class="animable" id="elu7b1kezcg6r"></rect></g><g id="el08nuwbng0q4h"><rect x="105.81" y="171.86" width="1.1" height="33.38" style="fill: rgb(235, 235, 235); transform-origin: 106.36px 188.55px; transform: rotate(-67deg);" class="animable" id="elaa93jd0xjy"></rect></g><g id="elxll0vi3lws"><rect x="62.03" y="320.83" width="20.24" height="1.1" style="fill: rgb(235, 235, 235); transform-origin: 72.15px 321.38px; transform: rotate(-22deg);" class="animable" id="el90n341f8ook"></rect></g><g id="elwo4wli2fnv"><rect x="88.63" y="307.43" width="33.38" height="1.1" style="fill: rgb(235, 235, 235); transform-origin: 105.32px 307.98px; transform: rotate(-22deg);" class="animable" id="el0fh7fkeyc1nn"></rect></g><g id="eliktljdsbngc"><rect x="164.93" y="425.54" width="20.24" height="1.1" style="fill: rgb(235, 235, 235); transform-origin: 175.05px 426.09px; transform: rotate(-67deg);" class="animable" id="elg5ba5t40gdi"></rect></g><g id="eldmnlm53xj68"><rect x="172.34" y="392.61" width="33.38" height="1.1" style="fill: rgb(235, 235, 235); transform-origin: 189.03px 393.16px; transform: rotate(-67deg);" class="animable" id="eld7nd3qzbrj8"></rect></g><g id="el644v51ckcn"><rect x="321.31" y="417.25" width="1.1" height="20.24" style="fill: rgb(235, 235, 235); transform-origin: 321.86px 427.37px; transform: rotate(-22deg);" class="animable" id="elh6cpqb5krjo"></rect></g><g id="elbp2bp8zu8tn"><rect x="307.9" y="377.51" width="1.1" height="33.38" style="fill: rgb(235, 235, 235); transform-origin: 308.45px 394.2px; transform: rotate(-22deg);" class="animable" id="elykw2nn1g7de"></rect></g><g id="elgmb36axqujf"><rect x="426.02" y="314.35" width="1.1" height="20.24" style="fill: rgb(235, 235, 235); transform-origin: 426.57px 324.47px; transform: rotate(-67deg);" class="animable" id="el7gw56zwoth3"></rect></g><g id="elc3md8zyc6p"><rect x="393.09" y="293.8" width="1.1" height="33.38" style="fill: rgb(235, 235, 235); transform-origin: 393.64px 310.49px; transform: rotate(-67deg);" class="animable" id="elqp652g9a00k"></rect></g><g id="el57xrx2n9qdj"><rect x="417.73" y="177.12" width="20.24" height="1.1" style="fill: rgb(235, 235, 235); transform-origin: 427.85px 177.67px; transform: rotate(-22deg);" class="animable" id="elm8via2uk8ga"></rect></g><g id="elb2s9kat8mnk"><rect x="377.99" y="190.52" width="33.38" height="1.1" style="fill: rgb(235, 235, 235); transform-origin: 394.68px 191.07px; transform: rotate(-22deg);" class="animable" id="eltpfsf0at79m"></rect></g><g id="el2tda2ngzut7"><rect x="314.83" y="72.4" width="20.24" height="1.1" style="fill: rgb(235, 235, 235); transform-origin: 324.95px 72.95px; transform: rotate(-67deg);" class="animable" id="elj3bb83ry5w"></rect></g><g id="eloec32y038fp"><rect x="294.28" y="105.34" width="33.38" height="1.1" style="fill: rgb(235, 235, 235); transform-origin: 310.97px 105.89px; transform: rotate(-67deg);" class="animable" id="eltes7cwitvn"></rect></g><rect x="249.45" y="31.89" width="1.1" height="49.78" style="fill: rgb(235, 235, 235); transform-origin: 250px 56.78px;" id="elbxw9dkk8yp" class="animable"></rect><rect x="249.45" y="92.89" width="1.1" height="17.28" style="fill: rgb(235, 235, 235); transform-origin: 250px 101.53px;" id="elrpt8ksorhbb" class="animable"></rect><g id="elbws0ieow8c9"><rect x="113.16" y="88.34" width="1.1" height="49.78" style="fill: rgb(235, 235, 235); transform-origin: 113.71px 113.23px; transform: rotate(-45deg);" class="animable" id="el9x6ybyk0ocf"></rect></g><g id="elsb0izpr6vr"><rect x="144.8" y="136.23" width="1.1" height="17.28" style="fill: rgb(235, 235, 235); transform-origin: 145.35px 144.87px; transform: rotate(-45deg);" class="animable" id="eld31uwol2k7a"></rect></g><rect x="32.37" y="248.97" width="49.78" height="1.1" style="fill: rgb(235, 235, 235); transform-origin: 57.26px 249.52px;" id="elo6edq9xsnqf" class="animable"></rect><rect x="93.36" y="248.97" width="17.28" height="1.1" style="fill: rgb(235, 235, 235); transform-origin: 102px 249.52px;" id="ela5edqxh9bbj" class="animable"></rect><g id="eln95g55exal"><rect x="88.82" y="385.26" width="49.78" height="1.1" style="fill: rgb(235, 235, 235); transform-origin: 113.71px 385.81px; transform: rotate(-45deg);" class="animable" id="eldlt19dhllf7"></rect></g><g id="elezawf4vhzn"><rect x="136.71" y="353.62" width="17.28" height="1.1" style="fill: rgb(235, 235, 235); transform-origin: 145.35px 354.17px; transform: rotate(-45deg);" class="animable" id="elgas56cwnibk"></rect></g><rect x="249.45" y="417.38" width="1.1" height="49.78" style="fill: rgb(235, 235, 235); transform-origin: 250px 442.27px;" id="eltux9va2a5hp" class="animable"></rect><rect x="249.45" y="388.87" width="1.1" height="17.28" style="fill: rgb(235, 235, 235); transform-origin: 250px 397.51px;" id="el5qubv4psm5f" class="animable"></rect><g id="elg8a6rx0xtbl"><rect x="385.74" y="360.93" width="1.1" height="49.78" style="fill: rgb(235, 235, 235); transform-origin: 386.29px 385.82px; transform: rotate(-45deg);" class="animable" id="el9qh4yul85x"></rect></g><g id="ell2kml78ld"><rect x="354.1" y="345.53" width="1.1" height="17.28" style="fill: rgb(235, 235, 235); transform-origin: 354.65px 354.17px; transform: rotate(-45deg);" class="animable" id="eltlfmcqbdwm"></rect></g><rect x="417.86" y="248.97" width="49.78" height="1.1" style="fill: rgb(235, 235, 235); transform-origin: 442.75px 249.52px;" id="el774vcojxokr" class="animable"></rect><rect x="389.35" y="248.97" width="17.28" height="1.1" style="fill: rgb(235, 235, 235); transform-origin: 397.99px 249.52px;" id="el61vw00zkht5" class="animable"></rect><g id="el54dsd50d78f"><rect x="361.4" y="112.68" width="49.78" height="1.1" style="fill: rgb(235, 235, 235); transform-origin: 386.29px 113.23px; transform: rotate(-45deg);" class="animable" id="elsqri0jfxsok"></rect></g><g id="elp34598r96nh"><rect x="346.01" y="144.32" width="17.28" height="1.1" style="fill: rgb(235, 235, 235); transform-origin: 354.65px 144.87px; transform: rotate(-45deg);" class="animable" id="elndj2tyfmj7"></rect></g><circle cx="250" cy="249.52" r="2.51" style="fill: rgb(235, 235, 235); transform-origin: 250px 249.52px;" id="el8y7iwxe1byu" class="animable"></circle><path d="M231.28,444.19c9.19,0,163.87,1,173.59.71a.75.75,0,0,0,.38-1.39c-6.13-3-13.08-2.42-19.45-4.57-3.74-1.26-6.05-3.71-8.65-6.52a18,18,0,0,0-8-5.26,16.94,16.94,0,0,0-8.77-.27c-3.14.75-5.86,2.54-8.86,3.68-7.43,2.8-14.65.14-20-5.36-4.38-4.54-8.68-8.81-14.63-11.25-5-2-10.51-2.47-15.49-.22-5.68,2.57-9.57,7.74-14.9,10.85-6.32,3.7-13.87,2.82-20.85,3.93s-12.34,7-18.46,10.38a13.05,13.05,0,0,1-6.67,2.07c-1.36,0-2.71-.41-4.06-.58-2.11-.26-4.11-.2-5.52,1.56C230.6,442.38,230.67,444.19,231.28,444.19Z" style="fill: rgb(235, 235, 235); transform-origin: 318.173px 428.599px;" id="elpyoehiyf7zb" class="animable"></path><g id="elohgpw67p129"><path d="M331.23,438.76c6.71,0,119.64.74,126.74.52.51,0,.78-.77.28-1-4.48-2.21-9.55-1.77-14.2-3.34-2.74-.92-4.42-2.71-6.31-4.76a13.13,13.13,0,0,0-5.88-3.83,12.41,12.41,0,0,0-6.4-.2c-2.29.54-4.28,1.85-6.47,2.68-5.42,2.05-10.69.1-14.57-3.91-3.19-3.31-6.33-6.43-10.68-8.21a14.13,14.13,0,0,0-11.31-.16c-4.14,1.88-7,5.65-10.87,7.92-4.62,2.7-10.13,2.06-15.23,2.87s-9,5.11-13.47,7.58a9.54,9.54,0,0,1-4.87,1.5,29.85,29.85,0,0,1-3-.41c-1.53-.19-3-.15-4,1.13C330.74,437.44,330.79,438.76,331.23,438.76Z" style="fill: rgb(235, 235, 235); opacity: 0.5; transform-origin: 394.678px 427.384px;" class="animable" id="elt3pllinh13"></path></g><g id="elujuunkgjrr"><path d="M164.4,456.35c6.71,0,119.64.74,126.74.52.51,0,.78-.77.28-1-4.48-2.21-9.55-1.77-14.2-3.34-2.74-.92-4.42-2.71-6.32-4.76a13.1,13.1,0,0,0-5.87-3.83,12.41,12.41,0,0,0-6.4-.2c-2.29.54-4.28,1.85-6.47,2.68-5.42,2.05-10.69.1-14.57-3.91-3.19-3.31-6.33-6.43-10.68-8.21a14.13,14.13,0,0,0-11.31-.16c-4.14,1.87-7,5.65-10.88,7.92-4.61,2.7-10.12,2.06-15.22,2.87s-9,5.1-13.47,7.58a9.54,9.54,0,0,1-4.87,1.5,27.21,27.21,0,0,1-3-.42c-1.54-.18-3-.14-4,1.14C163.91,455,164,456.35,164.4,456.35Z" style="fill: rgb(235, 235, 235); opacity: 0.5; transform-origin: 227.853px 444.974px;" class="animable" id="elfh4bd2qs9u4"></path></g><g id="elpl15nfm15of"><path d="M146.34,411.55c6.71,0,119.64.74,126.74.52.51,0,.78-.77.27-1-4.47-2.22-9.55-1.77-14.19-3.34-2.74-.92-4.42-2.71-6.32-4.76a13.1,13.1,0,0,0-5.88-3.84,12.37,12.37,0,0,0-6.39-.2c-2.3.55-4.28,1.86-6.47,2.69-5.43,2-10.7.1-14.57-3.92-3.2-3.3-6.34-6.43-10.68-8.21a14.17,14.17,0,0,0-11.31-.15c-4.15,1.87-7,5.65-10.88,7.92-4.61,2.69-10.13,2.05-15.22,2.87s-9,5.1-13.47,7.57a9.56,9.56,0,0,1-4.88,1.51c-1,0-2-.29-3-.42-1.54-.19-3-.14-4,1.14C145.84,410.22,145.9,411.55,146.34,411.55Z" style="fill: rgb(235, 235, 235); opacity: 0.5; transform-origin: 209.783px 400.174px;" class="animable" id="elip95jjrwb4"></path></g><path d="M51.31,431.13c.13.38,178,0,175.75,0-1,0,1.55-1.53.55-2-5.79-2.88-12.12-3-18.43-3.54-3.68-.33-7.46-.87-10.77-2.61s-5.44-4.8-7.82-7.62a33.41,33.41,0,0,0-30.37-11.5c-12.65,2-22.62,11.61-35.28,13.38-7.62,1.07-14.81-1.88-22.25-2.91-6.12-.85-11.22.34-16.7,3.05-4,2-7.72,3.66-12.26,4-3.48.24-7-.16-10.47-.19a23.45,23.45,0,0,0-15.4,6.16C47.29,427.81,45.5,431.13,51.31,431.13Z" style="fill: rgb(235, 235, 235); transform-origin: 137.498px 417.403px;" id="ela43snnk7sd9" class="animable"></path></g><g id="freepik--Moon--inject-2" class="animable" style="transform-origin: 117.69px 111.79px;"><circle cx="117.69" cy="111.79" r="59.48" style="fill: rgb(255, 255, 255); transform-origin: 117.69px 111.79px;" id="elsk7pm4emoo" class="animable"></circle><g id="elhq3oq015a45"><circle cx="117.69" cy="111.79" r="59.48" style="fill: #E93E19; opacity: 0.3; transform-origin: 117.69px 111.79px;" class="animable" id="elickx2l1m0n"></circle></g><g id="el9x19a0ti5fh"><path d="M87,138.39a5.3,5.3,0,0,1,1.7,3.81A5.84,5.84,0,0,1,87,146.41a5.18,5.18,0,0,1-4.35,1.49,6.23,6.23,0,0,1-3.74-1.79,20.06,20.06,0,0,0,3.7-.25,4.62,4.62,0,0,0,2.55-1.28,5.94,5.94,0,0,0,1.5-2.58A10.79,10.79,0,0,0,87,138.39Z" style="opacity: 0.1; transform-origin: 83.8054px 143.167px;" class="animable" id="elndcn5hluk8"></path></g><g id="el1kfrxr9tqft"><path d="M79.65,144.16a3.45,3.45,0,0,1-1.48-2.63,4.09,4.09,0,0,1,1.18-3.12,3.7,3.7,0,0,1,3.25-1,3.85,3.85,0,0,1,2.55,1.54,21.73,21.73,0,0,0-2.51.5,3.11,3.11,0,0,0-1.44.84,4.33,4.33,0,0,0-1,1.5A9,9,0,0,0,79.65,144.16Z" style="opacity: 0.1; transform-origin: 81.6565px 140.755px;" class="animable" id="elzmwlph78eyo"></path></g><g id="eljkaxnm8la8r"><path d="M159.69,82.4a5.33,5.33,0,0,1-1.27,4,5.8,5.8,0,0,1-4,2,5.22,5.22,0,0,1-4.25-1.77,6.25,6.25,0,0,1-1.61-3.83,20.09,20.09,0,0,0,2.93,2.27,4.61,4.61,0,0,0,2.76.74,6,6,0,0,0,2.84-.93A10.85,10.85,0,0,0,159.69,82.4Z" style="opacity: 0.1; transform-origin: 154.138px 85.405px;" class="animable" id="elsgv2qd2u6wb"></path></g><g id="el6tfnwaq2xvt"><path d="M150.34,81.82a3.37,3.37,0,0,1,.65-2.95,4.06,4.06,0,0,1,2.95-1.55,3.68,3.68,0,0,1,3.12,1.38,3.9,3.9,0,0,1,.89,2.85,20,20,0,0,0-2.21-1.3,3.22,3.22,0,0,0-1.64-.34,4.75,4.75,0,0,0-1.74.46A9,9,0,0,0,150.34,81.82Z" style="opacity: 0.1; transform-origin: 154.101px 79.566px;" class="animable" id="elr01rnxnish"></path></g><g id="elerbzfgu9q0d"><g style="opacity: 0.1; transform-origin: 148.648px 119.711px;" class="animable" id="el1ne5tgmbzhj"><path d="M152.37,114.18a10.1,10.1,0,0,1,7.43,5.4,11.18,11.18,0,1,0-17.45,10.33,10.19,10.19,0,0,1,10-15.73Z" id="elaerp84fpnwr" class="animable" style="transform-origin: 148.648px 119.711px;"></path></g></g><g id="elpc75i5y74ml"><path d="M164.12,118.43a14.48,14.48,0,0,1-.22,8.73,17.06,17.06,0,0,1-5,7.45,12.32,12.32,0,0,1-8.5,3.14,13.27,13.27,0,0,1-8.16-3.17,18,18,0,0,0,8.12,1.45,17.62,17.62,0,0,0,2-.32,9.93,9.93,0,0,0,1.85-.66,12.38,12.38,0,0,0,3.29-2.11c.49-.44,1-.91,1.46-1.39s.9-1,1.28-1.55a17.32,17.32,0,0,0,2.09-3.46A20.31,20.31,0,0,0,164.12,118.43Z" style="opacity: 0.1; transform-origin: 153.464px 128.092px;" class="animable" id="elo3zo1ixjwe"></path></g><g id="elxw3xha5t2w"><path d="M88.94,79.52A4.42,4.42,0,0,1,92,82.11a4.9,4.9,0,1,0-7.94,4,4.46,4.46,0,0,1,4.86-6.55Z" style="opacity: 0.1; transform-origin: 87.1013px 81.7395px;" class="animable" id="elrk3jgerekra"></path></g><g id="elk91y1n1bt9h"><path d="M93.94,81.74a6,6,0,0,1-.25,3.86,7.45,7.45,0,0,1-2.42,3.18,5.48,5.48,0,0,1-3.92,1.1,5.61,5.61,0,0,1-3.46-1.77,8.34,8.34,0,0,0,3.51.76,5.41,5.41,0,0,0,3.09-1.13A8.93,8.93,0,0,0,93.94,81.74Z" style="opacity: 0.1; transform-origin: 89.0186px 85.8257px;" class="animable" id="eldnftyiv7dpe"></path></g><g id="elf8fuiyy7t2j"><path d="M108.06,148.45a6.27,6.27,0,0,1,4.94,2.87,7,7,0,1,0-10.14,7.5,6.34,6.34,0,0,1,5.2-10.37Z" style="opacity: 0.1; transform-origin: 106.062px 152.224px;" class="animable" id="el835pwzxzy1x"></path></g><g id="elwone632zdw"><path d="M115.6,150.33a9.14,9.14,0,0,1,.39,5.41,10.69,10.69,0,0,1-2.6,4.91,7.71,7.71,0,0,1-5,2.48,8.34,8.34,0,0,1-5.25-1.41,10.86,10.86,0,0,0,5.12.41,7.59,7.59,0,0,0,4.22-2.37,11.86,11.86,0,0,0,2.58-4.28A12.49,12.49,0,0,0,115.6,150.33Z" style="opacity: 0.1; transform-origin: 109.685px 156.74px;" class="animable" id="elcs5l0uqbwnr"></path></g></g><g id="freepik--Stars--inject-2" class="animable" style="transform-origin: 250px 250px;"><polygon points="67.51 397.79 73.02 396.77 74.25 390.96 75.48 396.77 80.99 397.79 75.5 399.13 74.25 404.62 72.99 399.13 67.51 397.79" style="fill: #E93E19; transform-origin: 74.25px 397.79px;" id="el4ddtrv4txqf" class="animable"></polygon><polygon points="141.19 321.43 146.71 320.42 147.94 314.61 149.17 320.42 154.68 321.44 149.19 322.78 147.94 328.26 146.68 322.78 141.19 321.43" style="fill: #E93E19; transform-origin: 147.935px 321.435px;" id="eler0dpugrd1" class="animable"></polygon><polygon points="309.35 100.11 314.86 99.09 316.09 93.28 317.32 99.09 322.83 100.11 317.34 101.45 316.09 106.94 314.83 101.45 309.35 100.11" style="fill: #E93E19; transform-origin: 316.09px 100.11px;" id="elnotjd72tdy" class="animable"></polygon><polygon points="417.73 244.88 423.24 243.86 424.47 238.06 425.7 243.86 431.21 244.88 425.73 246.23 424.47 251.71 423.22 246.23 417.73 244.88" style="fill: #E93E19; transform-origin: 424.47px 244.885px;" id="elasg6im75kla" class="animable"></polygon><polygon points="58.65 220.07 61.73 219.5 62.41 216.26 63.1 219.5 66.18 220.08 63.12 220.83 62.41 223.89 61.71 220.83 58.65 220.07" style="fill: #E93E19; transform-origin: 62.415px 220.075px;" id="el0yhkl73s8sad" class="animable"></polygon><polygon points="222.38 276.98 225.46 276.41 226.15 273.16 226.84 276.41 229.91 276.98 226.85 277.73 226.15 280.79 225.44 277.73 222.38 276.98" style="fill: #E93E19; transform-origin: 226.145px 276.975px;" id="elvxcrryvhsj8" class="animable"></polygon><polygon points="129.81 188.61 132.89 188.04 133.58 184.79 134.27 188.04 137.35 188.61 134.28 189.36 133.58 192.43 132.88 189.36 129.81 188.61" style="fill: #E93E19; transform-origin: 133.58px 188.61px;" id="elzym7srwuee" class="animable"></polygon><polygon points="222.38 67.26 225.46 66.69 226.15 63.44 226.84 66.69 229.91 67.26 226.85 68.01 226.15 71.07 225.44 68.01 222.38 67.26" style="fill: #E93E19; transform-origin: 226.145px 67.255px;" id="elrdg3fgmn25" class="animable"></polygon><polygon points="348.55 428.99 351.63 428.42 352.32 425.17 353.01 428.42 356.09 428.99 353.02 429.74 352.32 432.8 351.62 429.74 348.55 428.99" style="fill: #E93E19; transform-origin: 352.32px 428.985px;" id="elt5f55nua77" class="animable"></polygon><polygon points="370.38 173.19 373.45 172.62 374.14 169.38 374.83 172.62 377.91 173.19 374.84 173.94 374.14 177.01 373.44 173.94 370.38 173.19" style="fill: #E93E19; transform-origin: 374.145px 173.195px;" id="el6u2t5avqiqf" class="animable"></polygon><polygon points="48.79 367.08 51.87 366.51 52.56 363.26 53.25 366.51 56.33 367.08 53.26 367.83 52.56 370.89 51.86 367.83 48.79 367.08" style="fill: #E93E19; transform-origin: 52.56px 367.075px;" id="elvoxm5q9lkwf" class="animable"></polygon><polygon points="443.67 206.51 446.75 205.94 447.44 202.69 448.13 205.94 451.21 206.51 448.14 207.26 447.44 210.32 446.74 207.26 443.67 206.51" style="fill: #E93E19; transform-origin: 447.44px 206.505px;" id="elfk1x71c2j7n" class="animable"></polygon><polygon points="406.44 443.95 409.52 443.38 410.21 440.14 410.9 443.38 413.98 443.96 410.91 444.71 410.21 447.77 409.51 444.71 406.44 443.95" style="fill: #E93E19; transform-origin: 410.21px 443.955px;" id="elgah0nsg49kr" class="animable"></polygon><path d="M284.24,80.08a.89.89,0,0,0,0-1.78A.89.89,0,0,0,284.24,80.08Z" style="fill: #E93E19; transform-origin: 284.24px 79.19px;" id="eli95pico9br" class="animable"></path><path d="M440.72,270a.9.9,0,0,0,0-1.79A.9.9,0,0,0,440.72,270Z" style="fill: #E93E19; transform-origin: 440.72px 269.105px;" id="eldjewdpsc2b" class="animable"></path><path d="M270.67,289.07a.9.9,0,0,0,0-1.79A.9.9,0,0,0,270.67,289.07Z" style="fill: #E93E19; transform-origin: 270.67px 288.175px;" id="elmuzq8s2qvz8" class="animable"></path><path d="M102,170.76a.9.9,0,0,0,0-1.79A.9.9,0,0,0,102,170.76Z" style="fill: #E93E19; transform-origin: 102px 169.865px;" id="elumygufjquv9" class="animable"></path><path d="M404.93,174.48a.9.9,0,0,0,0-1.79A.9.9,0,0,0,404.93,174.48Z" style="fill: #E93E19; transform-origin: 404.93px 173.585px;" id="elh6iwbe8n66d" class="animable"></path><path d="M154.05,430.77a.89.89,0,0,0,0-1.78A.89.89,0,0,0,154.05,430.77Z" style="fill: #E93E19; transform-origin: 154.05px 429.88px;" id="elw7l8nst0mrd" class="animable"></path><path d="M367.48,224.32a.63.63,0,0,0,0-1.26A.63.63,0,0,0,367.48,224.32Z" style="fill: #E93E19; transform-origin: 367.48px 223.69px;" id="elabnh0s5tg1b" class="animable"></path><path d="M288.76,53.49a.63.63,0,0,0,0-1.26A.63.63,0,0,0,288.76,53.49Z" style="fill: #E93E19; transform-origin: 288.76px 52.86px;" id="el9t08drfuewt" class="animable"></path><path d="M167.33,128a.63.63,0,0,0,0-1.26A.63.63,0,0,0,167.33,128Z" style="fill: #E93E19; transform-origin: 167.33px 127.37px;" id="eldk50ettidrg" class="animable"></path><path d="M167.94,180.55a.64.64,0,0,0,0-1.27A.64.64,0,0,0,167.94,180.55Z" style="fill: #E93E19; transform-origin: 167.94px 179.915px;" id="el5gf2igy6btf" class="animable"></path><path d="M341.32,244.88a1.71,1.71,0,0,0,0-3.42A1.71,1.71,0,0,0,341.32,244.88Z" style="fill: #E93E19; transform-origin: 341.32px 243.17px;" id="elfdtxzhn7lcg" class="animable"></path><path d="M343,61.54a1.71,1.71,0,0,0,0-3.42A1.71,1.71,0,0,0,343,61.54Z" style="fill: #E93E19; transform-origin: 343px 59.83px;" id="eloj1gjm9boh" class="animable"></path></g><g id="freepik--Ghost--inject-2" class="animable" style="transform-origin: 250.011px 249.924px;"><path d="M149.12,202.36c1.52,1.42,3,2.83,4.32,4-5.23-2.5-14,1.55-22.13,6.87a124.72,124.72,0,0,0-15.9,12.52l-2.22-2.35a137.29,137.29,0,0,1,15.92-12.58c.74-.5,1.47-1,2.19-1.43C138.4,204.89,144.37,202.55,149.12,202.36Z" style="fill: rgb(38, 50, 56); transform-origin: 133.315px 214.055px;" id="ela8eq0twirkr" class="animable"></path><path d="M170.68,212.64a33.2,33.2,0,0,1-15.24-4.85c-5.34-3.28-13-14.45-19.15-11.53s-6.94,21.48-.7,35.88c6.82,15.75,18.29,24.41,25.9,26.75Z" style="fill: #E93E19; transform-origin: 150.978px 227.334px;" id="ele1k63ghc35d" class="animable"></path><g id="elzzh9t0k8t8"><path d="M170.68,212.64a33.2,33.2,0,0,1-15.24-4.85c-5.34-3.28-13-14.45-19.15-11.53s-6.94,21.48-.7,35.88c6.82,15.75,18.29,24.41,25.9,26.75Z" style="fill: rgb(255, 255, 255); opacity: 0.5; transform-origin: 150.978px 227.334px;" class="animable" id="elf1gm9zeuxyv"></path></g><g id="eljxjcux5kwq"><path d="M170.68,212.64l-9.19,46.24a30.73,30.73,0,0,1-9-4.81l-.15-48.74a22.54,22.54,0,0,0,3.14,2.46A33.23,33.23,0,0,0,170.68,212.64Z" style="fill: #E93E19; opacity: 0.3; transform-origin: 161.51px 232.105px;" class="animable" id="el7klsogue5l2"></path></g><path d="M137.51,304.64c-17.31,18.7-38.3,9.69-38.3,9.69L59.69,277.75s-10.6-20.24,6.72-38.94,40.43-12,40.43-12l39.52,36.59S154.83,285.93,137.51,304.64Z" style="fill: #E93E19; transform-origin: 102.455px 271.071px;" id="elv86ldv31nvf" class="animable"></path><g id="elajn4cqapnhj"><g style="opacity: 0.1; transform-origin: 103.015px 270.55px;" class="animable" id="elumlqeun5qnc"><path d="M112,231.56a58,58,0,0,0-9.44,1.89,59.71,59.71,0,0,0-9,3.24A48.39,48.39,0,0,0,78,247.51a44.09,44.09,0,0,0-9.76,16.15,67.19,67.19,0,0,0-3.42,18.84,56.68,56.68,0,0,1,2.32-19.21,43.62,43.62,0,0,1,9.77-16.82,47.57,47.57,0,0,1,16.16-10.84A54.15,54.15,0,0,1,112,231.56Z" id="elzlvpuek0crt" class="animable" style="transform-origin: 88.3727px 257.03px;"></path><path d="M141.23,258.65a54.09,54.09,0,0,1-2.6,19.16,47.55,47.55,0,0,1-9.56,16.94,43.55,43.55,0,0,1-16,11,56.36,56.36,0,0,1-19,3.79,67.39,67.39,0,0,0,18.52-4.86,44.07,44.07,0,0,0,15.35-11,48.62,48.62,0,0,0,9.59-16.31,59.85,59.85,0,0,0,2.54-9.24A58.62,58.62,0,0,0,141.23,258.65Z" id="elerbstxfed5k" class="animable" style="transform-origin: 117.677px 284.095px;"></path><path d="M79.45,296c3.7-4.46,7.52-8.8,11.36-13.13s7.78-8.56,11.66-12.85,7.9-8.45,11.92-12.61,8-8.31,12.21-12.34c-3.7,4.45-7.52,8.8-11.36,13.12s-7.78,8.57-11.66,12.85-7.9,8.46-11.92,12.62S83.6,292,79.45,296Z" id="el70dwujup1nj" class="animable" style="transform-origin: 103.025px 270.535px;"></path></g></g><path d="M111.56,261.21c.25,1-1.47,7.38-2.45,7.51s-4.79-3.68-4.75-4.24S111.41,260.63,111.56,261.21Z" style="fill: #E93E19; transform-origin: 107.972px 264.932px;" id="ellth5i6aax5" class="animable"></path><g id="el6o7a0j0vxi9"><path d="M111.56,261.21c.25,1-1.47,7.38-2.45,7.51s-4.79-3.68-4.75-4.24S111.41,260.63,111.56,261.21Z" style="opacity: 0.3; transform-origin: 107.972px 264.932px;" class="animable" id="elu5cpjbyu5m"></path></g><path d="M102.82,243.61c1.88,2.11-4.23,17.62-5.74,17.71-2.76.17-12.78-11.46-12.68-13S101.4,242,102.82,243.61Z" style="fill: #E93E19; transform-origin: 93.7875px 252.302px;" id="elr6k9a8lm6e" class="animable"></path><g id="ell8gvc8wioyk"><g style="opacity: 0.3; transform-origin: 93.7875px 252.302px;" class="animable" id="elu50qrxg1ufn"><path d="M102.82,243.61c1.88,2.11-4.23,17.62-5.74,17.71-2.76.17-12.78-11.46-12.68-13S101.4,242,102.82,243.61Z" id="elvd4web7njy" class="animable" style="transform-origin: 93.7875px 252.302px;"></path></g></g><path d="M129.86,268.64c-2.25-1.71-17.24,5.58-17.22,7.09,0,2.77,12.41,11.87,14,11.64S131.57,269.94,129.86,268.64Z" style="fill: #E93E19; transform-origin: 121.487px 277.878px;" id="elc9k82ftt9xw" class="animable"></path><g id="el9ovgbgyjzx"><g style="opacity: 0.3; transform-origin: 121.487px 277.878px;" class="animable" id="elm82fls9zf2"><path d="M129.86,268.64c-2.25-1.71-17.24,5.58-17.22,7.09,0,2.77,12.41,11.87,14,11.64S131.57,269.94,129.86,268.64Z" id="elmytvqljw0ng" class="animable" style="transform-origin: 121.487px 277.878px;"></path></g></g><path d="M92.1,281.31c8.38,7.39,17.27-4.1,17.3-4.78a75.27,75.27,0,0,0-6.39-5.9c-.69-.14-2.68,2.23-3.13,2.09a28.57,28.57,0,0,1-4.36-3.63c-.14-.37,2-2.38,2-3a9,9,0,0,0-2.28-1.48C93.71,264.31,85.09,275.12,92.1,281.31Z" style="fill: #E93E19; transform-origin: 99.3944px 274.191px;" id="ely95fchzct3" class="animable"></path><g id="eljpfd5tts5zd"><g style="opacity: 0.3; transform-origin: 99.3944px 274.191px;" class="animable" id="eljyhoskloxjb"><path d="M92.1,281.31c8.38,7.39,17.27-4.1,17.3-4.78a75.27,75.27,0,0,0-6.39-5.9c-.69-.14-2.68,2.23-3.13,2.09a28.57,28.57,0,0,1-4.36-3.63c-.14-.37,2-2.38,2-3a9,9,0,0,0-2.28-1.48C93.71,264.31,85.09,275.12,92.1,281.31Z" id="el8ee6o5rgeob" class="animable" style="transform-origin: 99.3944px 274.191px;"></path></g></g><g id="elgqdwvjydpgd"><rect x="125.29" y="215.26" width="7.99" height="53.78" style="fill: #E93E19; transform-origin: 129.285px 242.15px; transform: rotate(-47.21deg);" class="animable" id="el1f59kyn280j"></rect></g><g id="eleq85vktkbwi"><polygon points="149.27 260.14 146.3 263.35 106.84 226.82 108.16 225.39 149.27 260.14" style="opacity: 0.1; transform-origin: 128.055px 244.37px;" class="animable" id="eldxs08pk1kdn"></polygon></g><g id="el39d2yl65yrp"><rect x="72.71" y="272.06" width="7.99" height="53.78" style="fill: #E93E19; transform-origin: 76.705px 298.95px; transform: rotate(-47.21deg);" class="animable" id="el6c7atni81dk"></rect></g><g id="elojhslb9w04n"><polygon points="56.73 280.95 59.69 277.75 99.15 314.28 97.83 315.7 56.73 280.95" style="opacity: 0.1; transform-origin: 77.94px 296.725px;" class="animable" id="el5129cm36e6y"></polygon></g><path d="M150.88,252.86c-.43,1.09-.83,2-1.15,2.77l-2.51-2.32c.36-.87.74-1.77,1.11-2.68,6.24-15.61,12.12-36.88,6.85-43a5,5,0,0,0-1.16-1,5.12,5.12,0,0,0-.57-.3h0c-1.35-1.13-2.8-2.54-4.32-4a11.57,11.57,0,0,1,6.57,1.51A9.52,9.52,0,0,1,159.8,210C162.73,221.52,154.83,243.16,150.88,252.86Z" style="fill: rgb(38, 50, 56); transform-origin: 153.829px 228.966px;" id="eljfwspxnvmnm" class="animable"></path><path d="M369.31,222.94c2.87-44.22-8-104.48-84.23-118.84S167.45,158.73,159,203.71s-6.63,113.13,59.2,162.88c73.29,55.39,174.41,22.46,194.57,9.59,9.1-5.81,14-9.86,14.43-15.47.41-5.11-3.31-7.54-2.05-14.22,1.54-8.2,20.26-14.5,20.61-32.14.31-15.83-17.14-21.06-18.79-32.28-1.1-7.5,4.49-14.85,2-22.19-4.45-13.09-22-11.91-36.51-18S369.31,222.94,369.31,222.94Z" style="fill: #E93E19; transform-origin: 300.596px 249.922px;" id="elbwzvrivtq4" class="animable"></path><g id="elvkz9syi889a"><path d="M369.31,222.94c2.87-44.22-8-104.48-84.23-118.84S167.45,158.73,159,203.71s-6.63,113.13,59.2,162.88c73.29,55.39,174.41,22.46,194.57,9.59,9.1-5.81,14-9.86,14.43-15.47.41-5.11-3.31-7.54-2.05-14.22,1.54-8.2,20.26-14.5,20.61-32.14.31-15.83-17.14-21.06-18.79-32.28-1.1-7.5,4.49-14.85,2-22.19-4.45-13.09-22-11.91-36.51-18S369.31,222.94,369.31,222.94Z" style="fill: rgb(255, 255, 255); opacity: 0.7; transform-origin: 300.596px 249.922px;" class="animable" id="el5wfkqzaul68"></path></g><g id="eladmmji40by7"><path d="M427.18,360.7c-.45,5.62-5.33,9.68-14.43,15.48-20.16,12.87-121.28,45.81-194.57-9.59-65.83-49.75-67.67-117.9-59.2-162.88,4.17-22.17,16.33-50.16,36.72-71.12a139,139,0,0,0-29.59,57.17c-9.92,42.16-11.09,106.65,49,156.5C282,401.74,379,374.93,398.63,363.62c8.85-5.09,13.65-8.71,14.32-14,.59-4.81-2.82-7.27-1.34-13.53,1.81-7.69,19.77-12.85,20.85-29.5,1-15-15.31-20.64-16.38-31.32-.72-7.13,4.87-13.85,2.84-20.88a14,14,0,0,0-3.21-5.73c6.18,2.09,11.15,5.09,13.23,11.23,2.5,7.33-3.09,14.68-2,22.17,1.64,11.23,19.09,16.45,18.78,32.28-.35,17.64-19.06,24-20.61,32.16C423.87,353.18,427.6,355.59,427.18,360.7Z" style="fill: #E93E19; opacity: 0.3; transform-origin: 300.562px 265.134px;" class="animable" id="elyvcks0ey2gs"></path></g><path d="M369.31,222.94a62.71,62.71,0,0,1-6.05,28.27,280.9,280.9,0,0,1,6.05-28.27Z" style="fill: #E93E19; transform-origin: 366.292px 237.075px;" id="elzj8myv56e1" class="animable"></path><path d="M268.21,201.3c8.31,2,10.65,10.69,8.54,17.51-2,6.45-8,9.45-14.7,8-6.1-1.35-10.82-8.9-7.93-17.24C256.8,201.83,263.62,200.2,268.21,201.3Z" style="fill: rgb(38, 50, 56); transform-origin: 265.365px 214.08px;" id="elngek3sgill" class="animable"></path><path d="M197,186.55c5.45,3.51,5,12.39,1.89,18.6-3,5.86-8,7.62-12.42,4.92-4-2.47-5.59-10.69-1.52-18.21C188.69,184.89,194,184.62,197,186.55Z" style="fill: rgb(38, 50, 56); transform-origin: 191.876px 198.413px;" id="elmcra39rcjv" class="animable"></path><path d="M201.1,164.31c-2.18-5.65-17.67,1.63-15.93,6.15S203.07,169.39,201.1,164.31Z" style="fill: rgb(38, 50, 56); transform-origin: 193.15px 167.186px;" id="elg4dglv3gv9i" class="animable"></path><path d="M270.88,177.45c4.09-4.47,15.87,7.94,12.6,11.52S267.2,181.47,270.88,177.45Z" style="fill: rgb(38, 50, 56); transform-origin: 277.138px 183.081px;" id="ele937i56w7su" class="animable"></path><path d="M173.77,200.05c13.49,1,21,12.83,21.59,18.16" style="fill: #E93E19; transform-origin: 184.565px 209.13px;" id="elv578uljld9i" class="animable"></path><g id="elnz330egmd8o"><path d="M173.77,200.05c13.49,1,21,12.83,21.59,18.16" style="fill: rgb(255, 255, 255); opacity: 0.7; transform-origin: 184.565px 209.13px;" class="animable" id="elweipz9goin"></path></g><path d="M285.59,223.66C269.36,216.1,254,225.09,250,230.9" style="fill: #E93E19; transform-origin: 267.795px 225.834px;" id="el1u7yaivck3c" class="animable"></path><g id="elqlxtv98nhs"><path d="M285.59,223.66C269.36,216.1,254,225.09,250,230.9" style="fill: rgb(255, 255, 255); opacity: 0.7; transform-origin: 267.795px 225.834px;" class="animable" id="elganqtasqjo6"></path></g><path d="M168.82,205.08c5.43-3.55,13.36.47,17.74,5.89,4.13,5.11,3.68,10.42-.6,13.34-3.9,2.67-12,.72-17.23-6.07C163.91,211.94,165.82,207,168.82,205.08Z" style="fill: rgb(255, 154, 187); transform-origin: 177.611px 214.6px;" id="el69ylysm6n4b" class="animable"></path><path d="M255.55,234.28c1.33-7.08,10.63-10.35,18.34-9.71,7.27.61,11.18,5.05,10.25,10.72-.86,5.18-8.66,10.21-18.1,9.17C257.29,243.49,254.81,238.19,255.55,234.28Z" style="fill: rgb(255, 154, 187); transform-origin: 269.851px 234.544px;" id="eljpdsefrsug" class="animable"></path><path d="M286.19,227.16c3.17-.69,9.19.63,10.92,1.65.21.13.25.45-.07.52-2.52.62-9.49-.36-10.94-1.43C285.85,227.71,285.84,227.24,286.19,227.16Z" style="fill: rgb(38, 50, 56); transform-origin: 291.596px 228.246px;" id="el7p2n4fy1si6" class="animable"></path><path d="M282.28,231.81c3.16.77,7.49,4.49,8.33,6.1a.3.3,0,0,1-.38.41c-2.55-.56-7.91-4.39-8.48-5.92A.47.47,0,0,1,282.28,231.81Z" style="fill: rgb(38, 50, 56); transform-origin: 286.186px 235.072px;" id="el1sdhu9temjh" class="animable"></path><path d="M277.43,235.08c1.83,1.55,3,5.58,2.8,7a.3.3,0,0,1-.47.18c-1.52-1.21-3.36-5.64-3-6.93C276.82,235.12,277.23,234.91,277.43,235.08Z" style="fill: rgb(38, 50, 56); transform-origin: 278.483px 238.668px;" id="elkacfp6tr8eq" class="animable"></path><path d="M177.14,206.88c-2.58-1-8.28-1.11-10.1-.72-.23.05-.35.25-.1.35,2,.83,8.46,1.34,10.06.87C177.27,207.3,177.43,207,177.14,206.88Z" style="fill: rgb(38, 50, 56); transform-origin: 172.048px 206.755px;" id="elgz9ihaywklv" class="animable"></path><path d="M179.18,210.59a21.88,21.88,0,0,0-9.17,2.64c-.15.12-.09.34.21.34,2.42.05,8.28-1.58,9.25-2.5C179.64,210.91,179.51,210.59,179.18,210.59Z" style="fill: rgb(38, 50, 56); transform-origin: 174.738px 212.081px;" id="el771mmins4ei" class="animable"></path><path d="M182.46,213.56c-2.08.71-4.34,3.17-4.58,4.15,0,.12.15.27.37.2,1.69-.55,4.65-3.16,4.72-4.07C183,213.68,182.69,213.48,182.46,213.56Z" style="fill: rgb(38, 50, 56); transform-origin: 180.426px 215.735px;" id="el747s0gnhntf" class="animable"></path><path d="M213.79,203.6a16.91,16.91,0,0,0-1.81,7.22,2.12,2.12,0,0,0,.32,1.29,3.36,3.36,0,0,0,2.09-.66,31.13,31.13,0,0,0,5.67-4.71l.92-.93c2,3.24,3.94,7.42,7.32,9.34,2.95,1.23,3.8-6.1,4.19-8.07.26,3.17.28,10.9-4.74,9.61-3.8-1.65-5.85-5.41-7.85-8.8l1.57.23a27.16,27.16,0,0,1-6.29,4.83c-7.29,3.44-4-6.62-1.39-9.35Z" style="fill: rgb(38, 50, 56); transform-origin: 221.659px 210.217px;" id="elgkj6nreacua" class="animable"></path><path d="M303.39,238.9a33.23,33.23,0,0,1-15.29,4.7c-6.26.34-18.89-4.49-22.31,1.43s5.78,23,19.87,29.89,28,7.64,35.64,5.22Z" style="fill: #E93E19; transform-origin: 293.187px 260.147px;" id="el9ogc5bdf8la" class="animable"></path><g id="elweql0tv34sc"><path d="M303.39,238.9a33.23,33.23,0,0,1-15.29,4.7c-6.26.34-18.89-4.49-22.31,1.43s5.78,23,19.87,29.89,28,7.64,35.64,5.22Z" style="fill: rgb(255, 255, 255); opacity: 0.7; transform-origin: 293.187px 260.147px;" class="animable" id="elpepsoy8oxvg"></path></g><path d="M303.39,238.9a31.08,31.08,0,0,1-17.1,5.54c-5.62-.08-11.86-2.21-17.22-.49-6.06,2.56,0,13,2.56,16.67,5.22,7.78,13.13,13.23,21.9,16.31s18.43,5.17,27.77,3.21c-9.16,3.23-19.42,1.82-28.54-1a43.24,43.24,0,0,1-23.59-16.8c-3.69-5.43-9.82-17.11-1-20.84,5.1-1.58,9.88,0,14.79.71,7,1.47,14.13-.13,20.47-3.31Z" style="fill: #E93E19; transform-origin: 292.469px 260.448px;" id="elzzrex9wail" class="animable"></path><g id="el0ex2mmkvtbjv"><g style="opacity: 0.3; transform-origin: 323.355px 147.33px;" class="animable" id="elxcj9w17y67c"><path d="M337,136.17C332,124.82,306.12,120.38,302.7,131c-2.8,8.73,4.53,17.59,10.4,21.14s15.28,4.92,20.4-.14C337.83,147.76,338.91,140.33,337,136.17Z" style="fill: rgb(255, 255, 255); transform-origin: 319.996px 140.139px;" id="el5x9ubdbymxj" class="animable"></path><path d="M344.53,162c-1-3.76-8.45-4.4-11.12-1.34s.11,8.49,3.15,9S345.44,165.41,344.53,162Z" style="fill: rgb(255, 255, 255); transform-origin: 338.48px 164.208px;" id="el4aopjvborz5" class="animable"></path></g></g></g><g id="freepik--Shapes--inject-2" class="animable" style="transform-origin: 290.999px 343.747px;"><g id="el0qalo9qvmblq"><g style="opacity: 0.5; transform-origin: 290.999px 343.747px;" class="animable" id="elgqmepfvlxn"><path d="M212.38,362.28s-25.06,1-36.63-10.15c-14.49-14,12.5-34.57,37.17-42.14,27.73-8.5,57.5-12.55,57.5-12.55s-11.9-11.6-41.12-11.6c-20.28,0-21,14.62-21,14.62s-21.87.75-38.39,16.81C157.34,329.52,147.1,364.33,212.38,362.28Z" style="fill: #E93E19; transform-origin: 215.512px 324.103px;" id="elelzhquf63tw" class="animable"></path><path d="M152.8,331.2s-12.19,25.15,22.32,31.16c0,0-26.2,1.29-30.21-10S152.8,331.2,152.8,331.2Z" style="fill: #E93E19; transform-origin: 159.602px 346.802px;" id="elre56ssriab" class="animable"></path><path d="M425.27,353.48c-27.53-29.44-66.75-8.17-91.19,11.59s-54.69,30-85.91,12.45C226.92,365.58,226,348,239.42,344s21.94,13.71,35,22c11.71,7.46,27.44,12.93,50.08-1.07,17-10.51,26.82-32.47,55.33-35.64S425.27,353.48,425.27,353.48Z" style="fill: #E93E19; transform-origin: 327.904px 357.778px;" id="elxovqyn5qgz" class="animable"></path><path d="M255.64,344.28s-11.41-9.91-23.53.73C232.11,345,241.85,326.08,255.64,344.28Z" style="fill: #E93E19; transform-origin: 243.875px 340.692px;" id="elhihq2ly0wvu" class="animable"></path><circle cx="199.44" cy="293.48" r="3.05" style="fill: #E93E19; transform-origin: 199.44px 293.48px;" id="eldqaj3zxiuiv" class="animable"></circle><path d="M361.35,327.45a3,3,0,1,1-.77-4.24A3,3,0,0,1,361.35,327.45Z" style="fill: #E93E19; transform-origin: 358.911px 325.703px;" id="el8silw0wzbfr" class="animable"></path><path d="M257.78,394.35a3,3,0,1,0,1-4.19A3,3,0,0,0,257.78,394.35Z" style="fill: #E93E19; transform-origin: 260.311px 392.74px;" id="elzlkxumr0gyl" class="animable"></path><path d="M185.31,344a1.52,1.52,0,1,1-1.52-1.52A1.52,1.52,0,0,1,185.31,344Z" style="fill: #E93E19; transform-origin: 183.79px 344px;" id="el5sqnwlg6g84" class="animable"></path><path d="M281.08,362.54a1.52,1.52,0,1,0,.49-2.1A1.51,1.51,0,0,0,281.08,362.54Z" style="fill: #E93E19; transform-origin: 282.366px 361.733px;" id="el8j7lfvatp8s" class="animable"></path><path d="M294.44,401a1.52,1.52,0,1,1-.39-2.12A1.52,1.52,0,0,1,294.44,401Z" style="fill: #E93E19; transform-origin: 293.191px 400.134px;" id="elbbcm38wwera" class="animable"></path><path d="M437.64,349.47a1.52,1.52,0,1,1-.38-2.12A1.52,1.52,0,0,1,437.64,349.47Z" style="fill: #E93E19; transform-origin: 436.394px 348.599px;" id="elltdesmea2gp" class="animable"></path></g></g></g><defs>     <filter id="active" height="200%">         <feMorphology in="SourceAlpha" result="DILATED" operator="dilate" radius="2"></feMorphology>                <feFlood flood-color="#32DFEC" flood-opacity="1" result="PINK"></feFlood>        <feComposite in="PINK" in2="DILATED" operator="in" result="OUTLINE"></feComposite>        <feMerge>            <feMergeNode in="OUTLINE"></feMergeNode>            <feMergeNode in="SourceGraphic"></feMergeNode>        </feMerge>    </filter>    <filter id="hover" height="200%">        <feMorphology in="SourceAlpha" result="DILATED" operator="dilate" radius="2"></feMorphology>                <feFlood flood-color="#ff0000" flood-opacity="0.5" result="PINK"></feFlood>        <feComposite in="PINK" in2="DILATED" operator="in" result="OUTLINE"></feComposite>        <feMerge>            <feMergeNode in="OUTLINE"></feMergeNode>            <feMergeNode in="SourceGraphic"></feMergeNode>        </feMerge>            <feColorMatrix type="matrix" values="0   0   0   0   0                0   1   0   0   0                0   0   0   0   0                0   0   0   1   0 "></feColorMatrix>    </filter></defs></svg>